<?xml version="1.0" encoding="utf-8"?>
<!-- Generator: Adobe Illustrator 19.2.1, SVG Export Plug-In . SVG Version: 6.00 Build 0)  -->
<svg version="1.1" id="layer" xmlns="http://www.w3.org/2000/svg" xmlns:xlink="http://www.w3.org/1999/xlink" x="0px" y="0px"
	 viewBox="0 0 652 652" style="enable-background:new 0 0 652 652;" xml:space="preserve">
<path d="M316.9,183.8h4.7v187.8h-4.7V183.8z M230.9,298.5h-36.3l18.2-47.5L230.9,298.5z M263.3,332.1l-42.1-109.8h-2.6l-42.1,109.8
	h5.3l11.1-29h39.9l11.1,29H263.3L263.3,332.1z M376.4,331.9h5.8l31.5-46.7l30.3,46.7h22.2l-40.8-61.8l31.5-45.5H451l-29.2,42
	l-26.8-42h-21l37.3,56L376.4,331.9z"/>
<g>
	<path d="M202.5,421.8l28,38.5h2.3v-42h-2.3v29.2l-22.2-29.2h-7v42h1.2V421.8z M246.9,418.3h7v42h-7V418.3z M505.8,421.8l28,38.5
		h2.3v-42h-2.3v29.2l-22.2-29.2h-7v42h1.2V421.8z M72.8,437.6v-17.5h3.5c6.1,0,8.7,3.8,8.7,8.7c0,4.9-2.7,8.7-8.7,8.7H72.8
		L72.8,437.6z M86.7,460.1h8l-12-21.1c5.6-1.2,9.7-4.4,9.7-10.1c0-7.1-6.4-10.6-14.2-10.6H65.7v41.7h7.1v-20.6h2.6L86.7,460.1
		L86.7,460.1z M620.2,457.9h-18.7v-18.7h12.8v-2.3h-12.8v-16.3h18.7v-2.3h-25.7v42h25.7V457.9z M322.7,457.9H304v-18.7h12.8v-2.3
		H304v-16.3h18.7v-2.3H297v42h25.7V457.9z M424.2,418.3h-7v42h7v-21h17.5v21h7v-42h-7v19.8h-17.5V418.3z M106.9,418.3v42h2.3v-38.5
		l14,37.3h2.3l12.8-37.3v38.5h7v-42h-7l-11.7,30.3L115,418.3H106.9z M373,439.2c0,12,7.6,21.8,18.2,21.8c6.4,0,10.8-3.6,13.1-7.1
		l-1.6-1.1c-2.2,3-5.9,6.4-11,6.4c-8.6,0-11.1-10.9-11.1-20s2.5-20,11.1-20c5.1,0,8.8,3.3,11,6.4l1.6-1.1c-2.3-3.5-6.7-7.1-13.1-7.1
		C380.6,417.4,373,427.2,373,439.2 M556.5,439.2c0-9.1,2.5-20,11.2-20c5.1,0,8.9,3.3,11,6.4l1.6-1.1c-2.3-3.5-6.8-7.1-13.2-7.1
		c-10.7,0-18.3,9.7-18.3,21.8c0,12,7.8,21.8,18.5,21.8c9.6,0,14.4-9.7,14.4-9.7v-7.8h-12.8v1.9h5.8v8.1c0,2.4-2.5,5.8-7,5.8
		C559,459.2,556.5,448.3,556.5,439.2 M34.3,428.5l7,18.5H27.2L34.3,428.5z M46.4,460h7.6l-16.4-42.7h-1L20.2,460h2l4.3-11.3H42
		L46.4,460z M170.8,428.5l7,18.5h-14.1L170.8,428.5z M182.8,460h7.6L174,417.4h-1L156.7,460h2l4.3-11.3h15.5L182.8,460L182.8,460z
		 M473.8,428.5l7,18.5h-14.1L473.8,428.5z M485.9,460h7.6l-16.4-42.7h-1L459.7,460h2l4.3-11.3h15.5L485.9,460L485.9,460z M332,460.3
		h2.3l11.7-18.7l12.8,18.7h8.2l-16.3-24.5l12.8-17.5h-2.3l-11.7,16.3L339,418.3h-8.2l14,22.2L332,460.3z"/>
</g>
</svg>
