<?xml version="1.0" standalone="no"?>
<!DOCTYPE svg PUBLIC "-//W3C//DTD SVG 20010904//EN"
 "http://www.w3.org/TR/2001/REC-SVG-20010904/DTD/svg10.dtd">
<svg version="1.0" xmlns="http://www.w3.org/2000/svg"
 width="820.000000pt" height="546.000000pt" viewBox="0 0 820.000000 546.000000"
 preserveAspectRatio="xMidYMid meet">

<g transform="translate(0.000000,546.000000) scale(0.100000,-0.100000)"
fill="#000000" stroke="none">
<path d="M3119 3348 c0 -2 -2 -14 -3 -28 -4 -33 3 -50 20 -50 12 0 14 -60 14
-369 0 -352 -1 -369 -19 -374 -13 -3 -18 -12 -16 -32 2 -15 6 -29 9 -32 2 -3
61 -2 130 2 l126 7 0 34 c0 27 -4 34 -20 34 -19 0 -20 7 -20 160 l0 160 69 0
c58 0 74 -4 95 -22 24 -21 26 -31 30 -123 3 -55 5 -133 5 -172 l1 -73 125 0
125 0 0 39 c0 30 -4 40 -20 44 -19 5 -20 14 -20 130 0 118 -1 127 -24 154 -22
26 -63 49 -120 67 -14 5 -4 14 45 39 87 44 112 90 106 193 -5 85 -25 127 -82
166 -22 15 -64 32 -94 38 -45 8 -459 15 -462 8z m384 -98 c30 -24 43 -105 32
-206 -6 -59 -10 -67 -38 -85 -23 -13 -50 -19 -94 -19 l-63 0 0 165 0 165 69 0
c53 0 74 -4 94 -20z"/>
<path d="M3870 3316 c0 -25 5 -35 20 -39 20 -5 20 -14 20 -365 0 -351 0 -360
-20 -365 -15 -4 -20 -14 -20 -41 l0 -36 275 0 276 0 -3 82 -3 82 -35 8 c-19 4
-45 4 -57 1 -20 -4 -23 -12 -23 -54 l0 -50 -87 3 -88 3 -3 173 -2 172 50 0 50
0 0 -45 0 -45 60 0 60 0 0 115 0 115 -60 0 -60 0 0 -35 0 -35 -50 0 -50 0 0
155 0 155 90 0 90 0 0 -45 0 -45 60 0 60 0 0 85 0 85 -275 0 -275 0 0 -34z"/>
<path d="M4500 3314 c0 -27 5 -37 20 -41 20 -5 20 -14 20 -370 0 -356 0 -365
-20 -370 -15 -4 -20 -14 -20 -38 l0 -32 213 -8 c116 -4 226 -8 242 -9 l30 -1
3 106 3 106 -38 7 c-21 3 -50 6 -65 6 l-28 0 0 -76 0 -77 -46 7 c-26 3 -55 6
-65 6 -18 0 -19 16 -19 370 0 322 2 370 15 370 11 0 15 11 15 40 l0 40 -130 0
-130 0 0 -36z"/>
<path d="M5067 3344 c-4 -4 -7 -22 -7 -41 0 -26 4 -33 20 -33 20 0 20 -7 20
-379 0 -370 0 -379 -20 -384 -14 -4 -20 -14 -20 -35 0 -29 3 -31 43 -36 23 -3
81 -7 130 -9 l87 -3 0 38 c0 25 -5 38 -13 38 -16 0 -27 248 -27 577 0 176 1
183 20 183 17 0 20 7 20 40 l0 40 -102 0 c-57 0 -112 3 -123 6 -11 3 -24 2
-28 -2z"/>
<path d="M5667 3340 c-59 -15 -109 -45 -153 -92 -85 -88 -114 -184 -114 -374
0 -273 79 -426 248 -479 64 -21 162 -16 213 9 32 16 33 16 58 -8 16 -14 44
-26 73 -30 l48 -7 2 198 c3 197 3 198 26 201 18 3 22 10 22 41 l0 38 -107 6
c-58 4 -132 7 -165 7 l-58 0 0 -34 c0 -32 3 -35 33 -38 l32 -3 3 -126 c2 -115
1 -128 -18 -152 -18 -23 -29 -27 -71 -27 -115 0 -119 12 -119 390 0 371 5 390
108 406 55 8 118 -10 134 -39 7 -12 15 -58 18 -102 l5 -80 73 -3 72 -3 0 146
0 145 -44 0 c-27 0 -46 -5 -49 -12 -3 -10 -15 -9 -53 5 -59 22 -164 30 -217
17z"/>
<path d="M2043 3333 l-73 -4 0 -41 c0 -35 2 -40 20 -35 20 5 20 0 20 -339 0
-383 -2 -399 -62 -430 -21 -12 -56 -18 -95 -19 -52 0 -66 4 -85 23 l-23 23 0
367 0 367 23 3 c18 3 22 10 22 43 l0 39 -142 0 c-79 0 -148 -4 -154 -8 -7 -4
-14 -23 -15 -42 -4 -32 -2 -35 24 -38 l28 -3 -2 -362 c-2 -351 -2 -363 19
-403 26 -51 79 -98 128 -114 24 -8 72 -11 134 -8 143 7 243 59 293 152 21 40
22 52 25 399 3 346 4 357 23 357 16 0 19 7 19 40 0 37 -2 40 -27 38 -16 -1
-61 -4 -100 -5z"/>
<path d="M2250 3300 c0 -33 3 -40 20 -40 19 0 20 -7 20 -133 0 -74 -3 -249 -7
-390 -5 -205 -9 -257 -20 -257 -8 0 -13 -13 -13 -38 l0 -37 238 17 c130 9 249
17 265 17 l27 1 0 90 0 90 -50 0 -50 0 0 -54 c0 -52 -1 -54 -31 -60 -17 -3
-58 -6 -90 -6 l-59 0 0 180 0 180 50 0 50 0 0 -45 0 -45 60 0 60 0 0 125 0
126 -47 -5 c-27 -3 -54 -5 -60 -5 -8 -1 -13 -15 -13 -35 0 -33 -1 -34 -46 -38
-25 -2 -47 -1 -50 1 -2 2 -4 76 -4 163 l0 158 53 0 c28 0 69 3 90 6 l37 7 0
-52 0 -51 50 0 50 0 0 85 0 85 -265 0 -265 0 0 -40z"/>
<path d="M6160 3291 c0 -30 4 -40 20 -44 20 -5 20 -14 20 -411 0 -399 0 -406
-20 -406 -17 0 -20 -7 -20 -39 0 -46 0 -46 149 -57 101 -7 111 -3 111 44 0 16
-7 26 -20 29 -20 5 -20 14 -20 419 0 361 2 414 15 414 11 0 15 12 15 45 l0 45
-125 0 -125 0 0 -39z"/>
<path d="M6720 3320 c-100 -21 -175 -111 -207 -249 -27 -114 -23 -406 6 -514
51 -192 145 -279 321 -294 201 -17 284 110 294 447 10 319 -55 520 -188 585
-59 29 -155 39 -226 25z m149 -85 c16 -8 32 -22 36 -32 4 -10 10 -192 12 -404
6 -460 6 -459 -76 -459 -65 0 -96 15 -116 55 -13 28 -15 91 -15 415 0 251 4
388 11 401 20 38 97 51 148 24z"/>
<path d="M875 3310 l-120 -5 -3 -42 c-3 -43 2 -48 36 -44 9 2 12 -94 12 -449
l0 -450 -25 0 c-23 0 -25 -4 -25 -45 l0 -46 33 6 c44 8 230 35 240 35 4 0 7
18 7 40 0 33 -3 40 -20 40 -19 0 -20 7 -20 195 l0 195 70 0 c62 0 74 -3 95
-25 25 -24 25 -25 25 -225 l0 -201 43 6 c23 4 83 12 132 18 l90 12 3 44 c3 42
3 43 -22 37 l-26 -6 0 129 c0 70 -3 143 -6 160 -9 44 -54 86 -114 106 l-50 17
52 26 c75 39 107 84 119 167 16 116 -11 212 -73 258 -69 51 -151 60 -453 47z
m285 -115 c22 -23 23 -31 21 -155 -1 -71 -6 -142 -11 -156 -12 -29 -54 -49
-127 -58 l-53 -7 0 201 0 200 73 0 c65 0 76 -3 97 -25z"/>
<path d="M7180 3265 c0 -41 2 -45 25 -45 29 0 26 64 28 -545 l2 -370 -25 0
c-27 0 -34 -22 -20 -61 7 -17 23 -22 98 -32 49 -7 94 -12 101 -12 6 0 11 18
11 45 0 37 -3 45 -18 45 -17 0 -19 14 -25 173 -10 256 -9 585 3 592 5 3 14
-14 20 -37 7 -24 37 -128 67 -233 86 -295 173 -606 173 -620 0 -8 34 -19 93
-29 50 -9 104 -19 120 -22 l27 -6 0 174 c0 95 0 338 0 541 l0 367 30 0 c29 0
30 1 30 50 l0 50 -85 2 c-47 1 -97 2 -112 2 -26 1 -28 -2 -31 -46 -3 -47 -3
-48 27 -48 l31 0 0 -387 c0 -254 -3 -384 -10 -377 -5 5 -57 181 -115 389 -57
209 -110 400 -118 425 -13 44 -14 45 -62 52 -28 3 -98 7 -157 7 l-108 1 0 -45z"/>
<path d="M185 3289 c-99 -3 -181 -7 -182 -8 -2 0 -3 -64 -3 -141 l0 -140 60 0
60 0 0 95 0 95 50 0 50 0 0 -479 0 -479 -25 -6 c-22 -6 -25 -12 -25 -52 0 -45
1 -46 28 -41 15 3 87 15 160 28 l132 22 0 44 c0 39 -2 43 -25 43 l-25 0 0 465
c0 365 3 465 13 465 6 1 29 3 50 6 l37 6 0 -77 0 -76 59 2 c57 2 59 3 65 32 3
16 6 69 6 118 l0 89 -152 -2 c-84 -1 -234 -5 -333 -9z"/>
<path d="M8023 3275 c-12 -8 -27 -31 -33 -50 -33 -100 65 -179 160 -130 37 19
50 43 50 95 0 62 -41 100 -107 100 -27 0 -58 -7 -70 -15z m122 -30 c25 -24 32
-65 19 -99 -8 -22 -21 -20 -35 5 -8 15 -8 24 0 32 29 29 -1 67 -53 67 -25 0
-26 -2 -26 -61 0 -43 3 -60 12 -57 7 3 15 15 18 28 l5 23 12 -27 c7 -14 17
-26 23 -26 5 0 10 -4 10 -10 0 -5 -18 -10 -39 -10 -31 0 -44 6 -60 26 -29 37
-26 70 8 105 36 36 73 37 106 4z m-37 -37 c-5 -15 -23 -11 -26 6 -2 11 2 14
13 10 9 -4 14 -11 13 -16z"/>
</g>
</svg>
