<?xml version="1.0" standalone="no"?>
<!DOCTYPE svg PUBLIC "-//W3C//DTD SVG 20010904//EN"
 "http://www.w3.org/TR/2001/REC-SVG-20010904/DTD/svg10.dtd">
<svg version="1.0" xmlns="http://www.w3.org/2000/svg"
 width="500.000000pt" height="500.000000pt" viewBox="0 0 500.000000 500.000000"
 preserveAspectRatio="xMidYMid meet">

<g transform="translate(0.000000,500.000000) scale(0.100000,-0.100000)"
fill="#000000" stroke="none">
<path d="M2385 2970 l0 -330 163 0 162 0 0 85 0 85 -50 0 -50 0 0 -45 c0 -45
0 -45 -35 -45 l-35 0 0 110 0 110 25 0 c16 0 25 -6 25 -15 0 -10 11 -15 35
-15 l35 0 0 70 0 70 -35 0 c-24 0 -35 -5 -35 -15 0 -9 -9 -15 -25 -15 l-25 0
0 100 0 100 35 0 c33 0 35 -2 35 -35 l0 -35 50 0 50 0 0 75 0 75 -162 0 -163
0 0 -330z"/>
<path d="M2775 2971 l0 -331 40 -5 c22 -3 97 -6 168 -7 l127 -3 0 98 0 97 -50
0 -50 0 0 -55 0 -55 -40 0 -40 0 0 258 c0 172 4 262 11 269 6 6 9 21 7 34 -3
23 -7 24 -88 27 l-85 3 0 -330z"/>
<path d="M1943 3283 c-15 -6 -17 -49 -3 -58 6 -4 10 -105 10 -270 0 -165 -4
-266 -10 -270 -5 -3 -10 -19 -10 -36 0 -29 0 -29 59 -29 32 0 72 3 88 6 l30 6
-5 134 c-5 136 -4 142 32 128 13 -5 16 -27 16 -135 l0 -129 84 0 84 0 -5 123
c-6 129 -18 171 -53 182 -20 6 -20 7 3 25 31 25 47 82 47 171 0 84 -22 132
-66 149 -26 10 -278 13 -301 3z m212 -182 l0 -105 -27 -7 -28 -7 0 115 0 114
28 -3 27 -3 0 -104z"/>
<path d="M3175 3248 c13 -53 17 -560 5 -572 -5 -5 -10 -20 -10 -33 0 -26 9
-29 118 -38 l72 -6 0 30 c0 16 -4 33 -10 36 -6 4 -10 105 -10 270 0 165 4 266
10 270 14 9 12 55 -2 60 -7 2 -51 6 -97 10 l-84 7 8 -34z"/>
<path d="M1570 3249 c-85 -10 -158 -18 -162 -18 -12 -1 -10 -49 2 -56 6 -4 10
-107 10 -275 0 -168 -4 -271 -10 -275 -5 -3 -10 -17 -10 -31 0 -29 -1 -29 175
-9 72 8 136 15 143 15 9 0 12 25 12 91 0 90 0 91 -22 85 -13 -3 -33 -6 -45 -6
-21 0 -23 -5 -23 -50 0 -43 -3 -50 -19 -50 -11 0 -26 -3 -35 -6 -14 -5 -16 8
-16 110 l0 116 25 0 c16 0 25 -6 25 -16 0 -11 8 -14 33 -12 l32 3 3 73 3 72
-36 0 c-28 0 -35 -4 -35 -20 0 -15 -7 -20 -25 -20 -25 0 -25 0 -25 99 l0 99
27 5 c37 7 43 2 43 -37 l0 -32 48 6 47 5 3 69 c2 38 -1 72 -5 76 -4 3 -78 -2
-163 -11z"/>
<path d="M3525 3243 c-38 -7 -67 -27 -83 -58 -21 -39 -31 -401 -12 -482 13
-61 50 -110 97 -129 39 -17 126 -18 154 -3 16 8 23 7 32 -4 7 -8 27 -17 45
-21 l32 -5 0 153 c0 84 3 167 6 183 l6 30 -69 7 c-37 4 -76 10 -85 12 -20 6
-25 -25 -8 -42 7 -7 10 -50 8 -109 -2 -80 -6 -100 -20 -109 -13 -8 -23 -8 -35
0 -16 10 -18 34 -21 220 -1 115 0 219 3 232 4 17 13 22 35 22 36 0 50 -27 50
-94 0 -48 11 -56 78 -56 l32 0 0 110 0 110 -27 2 c-16 1 -37 2 -48 2 -11 1
-33 6 -50 13 -36 14 -92 21 -120 16z"/>
<path d="M1310 3225 c-8 -2 -31 -6 -50 -9 l-35 -6 3 -270 c3 -236 2 -274 -12
-295 -18 -27 -54 -33 -74 -13 -15 15 -17 494 -2 503 6 3 10 20 10 36 0 25 -3
29 -22 25 -13 -3 -56 -10 -95 -16 -71 -11 -73 -13 -73 -40 0 -16 5 -32 10 -35
6 -4 10 -97 10 -246 0 -276 5 -299 67 -326 76 -31 215 7 254 71 11 17 23 47
28 66 14 50 19 560 6 559 -5 -1 -17 -3 -25 -4z"/>
<path d="M3855 3161 c13 -61 17 -553 5 -565 -14 -14 -13 -66 3 -67 6 0 46 -6
87 -12 l75 -13 0 333 c0 215 -4 333 -10 334 -5 0 -45 6 -88 13 l-79 13 7 -36z"/>
<path d="M675 3104 c-55 -13 -110 -26 -122 -29 -17 -4 -23 -13 -23 -33 0 -15
5 -33 10 -38 12 -12 8 -509 -5 -561 -9 -39 -9 -39 95 -15 65 15 75 21 78 41 2
13 -1 28 -7 34 -7 7 -11 53 -11 114 0 102 0 103 24 103 13 0 27 -7 30 -16 3
-9 6 -67 6 -130 0 -63 3 -114 8 -114 4 0 39 7 78 16 l72 17 -5 121 c-5 123
-18 166 -48 166 -20 0 -19 3 9 45 30 43 40 101 34 191 -4 58 -8 70 -32 90 -34
30 -61 29 -191 -2z m73 -177 l3 -107 -26 -10 c-15 -6 -28 -10 -31 -10 -2 0 -4
51 -4 114 0 101 2 115 18 119 34 9 37 0 40 -106z"/>
<path d="M4148 3101 c-40 -32 -48 -77 -48 -284 0 -208 8 -258 51 -310 59 -72
197 -105 256 -61 48 36 55 77 51 309 -3 203 -4 212 -28 255 -37 65 -104 103
-189 108 -56 3 -70 1 -93 -17z m156 -87 c3 -9 6 -123 6 -254 0 -249 -2 -259
-42 -238 -16 8 -18 31 -18 258 l0 250 24 0 c13 0 27 -7 30 -16z"/>
<path d="M285 2992 l-170 -57 -3 -82 c-3 -83 -3 -83 22 -83 21 0 27 7 37 43
15 50 26 67 46 67 11 0 13 -40 10 -252 -2 -139 -7 -268 -12 -285 -9 -41 -3
-41 90 -10 l69 23 0 290 c1 263 3 289 18 292 12 2 20 -8 29 -37 14 -46 19 -49
42 -23 21 23 25 173 5 171 -7 -1 -89 -26 -183 -57z"/>
<path d="M4525 2720 l0 -330 50 -16 c28 -10 56 -19 63 -22 15 -5 17 54 2 63
-6 4 -10 66 -10 153 0 86 4 141 9 132 5 -8 29 -89 55 -180 60 -213 57 -207
106 -220 23 -6 48 -14 56 -17 12 -4 14 38 14 290 0 187 4 298 10 302 6 3 10
19 10 34 0 24 -6 29 -53 44 -30 9 -59 17 -65 17 -15 0 -16 -46 -2 -55 6 -4 10
-58 9 -133 -1 -104 -3 -121 -11 -92 -6 19 -28 96 -50 170 -21 74 -42 137 -46
141 -7 6 -130 49 -141 49 -3 0 -6 -149 -6 -330z"/>
<path d="M2254 2397 c-56 -58 -121 -94 -189 -103 -48 -7 -55 -18 -55 -87 0
-46 23 -93 49 -102 23 -7 62 7 81 30 14 17 15 16 21 -6 4 -13 7 -44 8 -68 1
-60 28 -158 56 -207 13 -22 44 -59 69 -82 112 -103 325 -94 433 20 58 61 102
173 104 268 0 25 4 56 8 69 6 22 7 23 21 6 19 -23 58 -37 81 -30 26 9 49 56
49 102 0 69 -7 80 -55 87 -68 9 -133 45 -189 103 -27 29 -56 53 -63 53 -17 0
-35 -47 -28 -71 13 -41 7 -278 -9 -333 -50 -171 -212 -189 -283 -31 -15 33
-18 71 -20 223 -1 101 -4 190 -7 198 -10 25 -31 15 -82 -39z"/>
</g>
</svg>
